<?xml version="1.0" standalone="no"?>
<!DOCTYPE svg PUBLIC "-//W3C//DTD SVG 20010904//EN"
 "http://www.w3.org/TR/2001/REC-SVG-20010904/DTD/svg10.dtd">
<svg version="1.0" xmlns="http://www.w3.org/2000/svg"
 width="512.000000pt" height="512.000000pt" viewBox="0 0 512.000000 512.000000"
 preserveAspectRatio="xMidYMid meet">
<metadata>
Created by potrace 1.11, written by Peter Selinger 2001-2013
</metadata>
<g transform="translate(0.000000,512.000000) scale(0.100000,-0.100000)"
fill="#000000" stroke="none">
<path d="M0 2560 l0 -2560 2560 0 2560 0 0 2560 0 2560 -2560 0 -2560 0 0
-2560z m1404 2406 c40 -17 76 -60 76 -92 0 -22 -4 -24 -43 -24 -37 0 -46 4
-55 24 -21 46 -132 43 -132 -3 0 -27 15 -36 100 -61 124 -37 175 -112 134
-196 -29 -58 -64 -78 -143 -82 -98 -6 -154 20 -182 83 -11 26 -18 49 -16 52 3
2 23 7 44 10 34 4 40 2 50 -20 18 -40 57 -61 99 -54 45 7 64 23 64 52 0 31
-14 40 -107 70 -100 31 -133 64 -133 129 0 50 27 91 74 112 41 17 128 18 170
0z m3394 -118 c77 -216 106 -429 106 -793 0 -286 -13 -424 -56 -610 -17 -76
-72 -240 -85 -254 -2 -3 -43 33 -91 80 -108 106 -159 147 -294 237 -134 90
-313 193 -539 310 l-176 92 -206 0 -207 0 0 150 0 150 207 0 206 0 176 92
c440 229 772 451 882 589 17 22 34 39 39 39 4 0 21 -37 38 -82z m-2992 -31
c40 -43 42 -53 12 -61 -34 -9 -68 -7 -68 3 0 16 -31 41 -51 41 -39 0 -59 -35
-59 -105 0 -52 4 -69 20 -85 32 -32 75 -24 91 16 9 26 50 33 79 14 13 -8 13
-14 -4 -44 -34 -63 -134 -86 -206 -48 -98 53 -98 240 1 294 26 15 48 18 93 15
53 -3 62 -7 92 -40z m324 21 c49 -34 70 -67 76 -123 15 -137 -122 -228 -247
-164 -103 52 -104 228 -2 287 52 30 129 30 173 0z m377 -6 c61 -43 83 -150 44
-222 -37 -71 -144 -101 -220 -62 -116 58 -114 245 3 298 45 21 135 13 173 -14z
m378 -4 c101 -95 49 -298 -76 -298 -22 0 -51 7 -64 16 l-25 16 0 -71 0 -71
-45 0 -45 0 0 215 0 215 40 0 c29 0 40 -4 40 -15 0 -12 6 -11 33 5 50 31 101
26 142 -12z m-2402 -519 l27 -12 -2 -241 -3 -241 -50 -11 c-68 -16 -130 -16
-190 -1 l-50 13 -3 241 -2 240 27 11 c16 6 37 13 48 16 34 9 169 -1 198 -15z
m667 -249 l0 -150 -230 0 -230 0 0 150 0 150 230 0 230 0 0 -150z m480 0 l0
-150 -150 0 -150 0 0 150 0 150 150 0 150 0 0 -150z m960 0 l0 -150 -390 0
-390 0 0 150 0 150 390 0 390 0 0 -150z m480 0 l0 -150 -150 0 -150 0 0 150 0
150 150 0 150 0 0 -150z m320 -2072 l-1 -1743 -39 45 c-22 25 -145 170 -273
322 -127 152 -235 276 -238 275 -3 -1 -147 -161 -319 -354 -172 -194 -316
-353 -320 -353 -4 0 -148 159 -320 353 -172 193 -316 353 -319 354 -3 1 -111
-123 -238 -275 -128 -152 -251 -297 -273 -322 l-39 -45 -1 1743 0 1742 1190 0
1190 0 0 -1742z"/>
<path d="M2012 4793 c-20 -8 -42 -59 -42 -98 0 -79 53 -125 106 -91 86 57 29
227 -64 189z"/>
<path d="M2365 4775 c-21 -20 -25 -34 -25 -80 0 -46 4 -60 25 -80 13 -14 34
-25 45 -25 12 0 32 11 45 25 21 20 25 34 25 80 0 46 -4 60 -25 80 -31 32 -59
32 -90 0z"/>
<path d="M2742 4777 c-33 -35 -31 -129 3 -162 13 -14 29 -25 35 -25 65 0 93
137 39 191 -25 25 -51 24 -77 -4z"/>
<path d="M1632 3225 c-62 -81 -90 -189 -77 -293 6 -56 9 -59 89 -137 l83 -80
-14 -50 c-106 -372 -223 -662 -358 -890 -25 -42 -45 -79 -45 -82 0 -3 53 -3
118 -1 127 6 189 23 274 77 l47 30 10 -50 c26 -118 4 -266 -58 -413 l-21 -49
44 5 c60 7 161 56 218 107 26 23 65 69 87 102 34 51 41 57 49 42 5 -10 37 -90
72 -178 35 -88 65 -162 68 -165 8 -9 109 108 146 169 77 126 114 299 102 479
-3 50 -2 92 2 92 43 1 407 32 410 35 9 8 162 359 159 362 -2 1 -51 -8 -109
-21 -210 -48 -340 -46 -390 4 -35 35 -36 64 -3 86 34 22 74 30 271 53 93 11
194 25 223 32 l53 11 -7 107 c-4 58 -10 135 -14 171 l-6 65 -260 35 -260 35
-25 77 c-14 42 -28 79 -31 83 -4 3 -132 10 -285 15 -305 9 -348 16 -423 70
-23 17 -54 48 -69 70 -15 22 -29 39 -32 39 -3 0 -20 -19 -38 -44z"/>
</g>
</svg>
